<svg xmlns="http://www.w3.org/2000/svg" width="1200" height="470" viewBox="0 0 1200 470">
<rect width="1200" height="470" fill="#ffffff"/>
<defs><radialGradient id="heat" cx="50%" cy="50%" r="50%"><stop offset="0%" stop-color="#ff7a3d" stop-opacity="0.85"/><stop offset="100%" stop-color="#ffb04a" stop-opacity="0"/></radialGradient><radialGradient id="infl" cx="50%" cy="50%" r="50%"><stop offset="0%" stop-color="#e2463a" stop-opacity="0.55"/><stop offset="100%" stop-color="#e2463a" stop-opacity="0"/></radialGradient><marker id="arr" viewBox="0 0 10 10" refX="5" refY="5" markerWidth="7" markerHeight="7" orient="auto-start-reverse"><path d="M0 0 L10 5 L0 10 z" fill="#1a1a1a"/></marker><linearGradient id="beam" x1="0" y1="0" x2="0" y2="1"><stop offset="0%" stop-color="#7a5ab8" stop-opacity="0.35"/><stop offset="100%" stop-color="#7a5ab8" stop-opacity="0.05"/></linearGradient></defs>
<rect x="15" y="30" width="270" height="350" fill="#fbfbfb"/>
<defs><clipPath id="pr0"><rect x="15" y="150" width="270" height="230"/></clipPath></defs>
<g clip-path="url(#pr0)">
<rect x="15" y="150" width="270" height="30" fill="#f7e6da"/>
<line x1="15" y1="157" x2="26" y2="157" stroke="#e3c3ad" stroke-width="3" stroke-linecap="round"/>
<line x1="33" y1="157" x2="44" y2="157" stroke="#e3c3ad" stroke-width="3" stroke-linecap="round"/>
<line x1="51" y1="157" x2="62" y2="157" stroke="#e3c3ad" stroke-width="3" stroke-linecap="round"/>
<line x1="69" y1="157" x2="80" y2="157" stroke="#e3c3ad" stroke-width="3" stroke-linecap="round"/>
<line x1="87" y1="157" x2="98" y2="157" stroke="#e3c3ad" stroke-width="3" stroke-linecap="round"/>
<line x1="105" y1="157" x2="116" y2="157" stroke="#e3c3ad" stroke-width="3" stroke-linecap="round"/>
<line x1="123" y1="157" x2="134" y2="157" stroke="#e3c3ad" stroke-width="3" stroke-linecap="round"/>
<line x1="141" y1="157" x2="152" y2="157" stroke="#e3c3ad" stroke-width="3" stroke-linecap="round"/>
<line x1="159" y1="157" x2="170" y2="157" stroke="#e3c3ad" stroke-width="3" stroke-linecap="round"/>
<line x1="177" y1="157" x2="188" y2="157" stroke="#e3c3ad" stroke-width="3" stroke-linecap="round"/>
<line x1="195" y1="157" x2="206" y2="157" stroke="#e3c3ad" stroke-width="3" stroke-linecap="round"/>
<line x1="213" y1="157" x2="224" y2="157" stroke="#e3c3ad" stroke-width="3" stroke-linecap="round"/>
<line x1="231" y1="157" x2="242" y2="157" stroke="#e3c3ad" stroke-width="3" stroke-linecap="round"/>
<line x1="249" y1="157" x2="260" y2="157" stroke="#e3c3ad" stroke-width="3" stroke-linecap="round"/>
<line x1="267" y1="157" x2="278" y2="157" stroke="#e3c3ad" stroke-width="3" stroke-linecap="round"/>
<rect x="15" y="180" width="270" height="150" fill="#f5d6d4"/>
<path d="M15 202 Q40 194 65 202 Q90 210 115 202 Q140 194 165 202 Q190 210 215 202 Q240 194 265 202 Q290 210 315 202" fill="none" stroke="#e0a5a1" stroke-width="3" stroke-linecap="round"/>
<path d="M15 228 Q40 220 65 228 Q90 236 115 228 Q140 220 165 228 Q190 236 215 228 Q240 220 265 228 Q290 236 315 228" fill="none" stroke="#e0a5a1" stroke-width="3" stroke-linecap="round"/>
<path d="M15 254 Q40 246 65 254 Q90 262 115 254 Q140 246 165 254 Q190 262 215 254 Q240 246 265 254 Q290 262 315 254" fill="none" stroke="#e0a5a1" stroke-width="3" stroke-linecap="round"/>
<path d="M15 280 Q40 272 65 280 Q90 288 115 280 Q140 272 165 280 Q190 288 215 280 Q240 272 265 280 Q290 288 315 280" fill="none" stroke="#e0a5a1" stroke-width="3" stroke-linecap="round"/>
<path d="M15 306 Q40 298 65 306 Q90 314 115 306 Q140 298 165 306 Q190 314 215 306 Q240 298 265 306 Q290 314 315 306" fill="none" stroke="#e0a5a1" stroke-width="3" stroke-linecap="round"/>
<rect x="15" y="330" width="270" height="50" fill="#fcf2d2"/>
<circle cx="33" cy="352" r="16" fill="#f6e3a6" stroke="#e5cd7d" stroke-width="1.5"/>
<circle cx="52" cy="388" r="16" fill="#f6e3a6" stroke="#e5cd7d" stroke-width="1.5"/>
<circle cx="71" cy="352" r="16" fill="#f6e3a6" stroke="#e5cd7d" stroke-width="1.5"/>
<circle cx="90" cy="388" r="16" fill="#f6e3a6" stroke="#e5cd7d" stroke-width="1.5"/>
<circle cx="109" cy="352" r="16" fill="#f6e3a6" stroke="#e5cd7d" stroke-width="1.5"/>
<circle cx="128" cy="388" r="16" fill="#f6e3a6" stroke="#e5cd7d" stroke-width="1.5"/>
<circle cx="147" cy="352" r="16" fill="#f6e3a6" stroke="#e5cd7d" stroke-width="1.5"/>
<circle cx="166" cy="388" r="16" fill="#f6e3a6" stroke="#e5cd7d" stroke-width="1.5"/>
<circle cx="185" cy="352" r="16" fill="#f6e3a6" stroke="#e5cd7d" stroke-width="1.5"/>
<circle cx="204" cy="388" r="16" fill="#f6e3a6" stroke="#e5cd7d" stroke-width="1.5"/>
<circle cx="223" cy="352" r="16" fill="#f6e3a6" stroke="#e5cd7d" stroke-width="1.5"/>
<circle cx="242" cy="388" r="16" fill="#f6e3a6" stroke="#e5cd7d" stroke-width="1.5"/>
<circle cx="261" cy="352" r="16" fill="#f6e3a6" stroke="#e5cd7d" stroke-width="1.5"/>
<circle cx="280" cy="388" r="16" fill="#f6e3a6" stroke="#e5cd7d" stroke-width="1.5"/>
<circle cx="299" cy="352" r="16" fill="#f6e3a6" stroke="#e5cd7d" stroke-width="1.5"/>
<circle cx="318" cy="388" r="16" fill="#f6e3a6" stroke="#e5cd7d" stroke-width="1.5"/>
</g>
<line x1="15" y1="180" x2="285" y2="180" stroke="#d9b6a0" stroke-width="1.5" stroke-dasharray="4 4"/>
<path d="M53.0 150 Q53.0 198 68.0 202 Q83.0 198 83.0 150 Z" fill="#fbfbfb" stroke="#c99a80" stroke-width="2"/>
<path d="M217.0 150 Q217.0 198 232.0 202 Q247.0 198 247.0 150 Z" fill="#fbfbfb" stroke="#c99a80" stroke-width="2"/>
<ellipse cx="98.0" cy="260" rx="16" ry="24" fill="url(#heat)"/>
<path d="M98.0 110 L98.0 260" stroke="#7a7a7a" stroke-width="2.5" stroke-linecap="round"/>
<ellipse cx="124.0" cy="260" rx="16" ry="24" fill="url(#heat)"/>
<path d="M124.0 110 L124.0 260" stroke="#7a7a7a" stroke-width="2.5" stroke-linecap="round"/>
<ellipse cx="150.0" cy="260" rx="16" ry="24" fill="url(#heat)"/>
<path d="M150.0 110 L150.0 260" stroke="#7a7a7a" stroke-width="2.5" stroke-linecap="round"/>
<ellipse cx="176.0" cy="260" rx="16" ry="24" fill="url(#heat)"/>
<path d="M176.0 110 L176.0 260" stroke="#7a7a7a" stroke-width="2.5" stroke-linecap="round"/>
<ellipse cx="202.0" cy="260" rx="16" ry="24" fill="url(#heat)"/>
<path d="M202.0 110 L202.0 260" stroke="#7a7a7a" stroke-width="2.5" stroke-linecap="round"/>
<rect x="80.0" y="80" width="140" height="30" fill="#dcdcdc" stroke="#9a9a9a"/>
<rect x="15" y="30" width="270" height="350" fill="none" stroke="#cfcfcf" stroke-width="1.5"/>
<text x="150.0" y="420" text-anchor="middle" font-family="'Noto Sans KR','Apple SD Gothic Neo','Malgun Gothic',sans-serif" font-size="19" font-weight="700" fill="#1a1a1a">니들RF · 실펌X</text>
<text x="150.0" y="446" text-anchor="middle" font-family="'Noto Sans KR','Apple SD Gothic Neo','Malgun Gothic',sans-serif" font-size="14" font-weight="400" fill="#555555">미세 바늘로 진피에 열 전달</text>
<rect x="315" y="30" width="270" height="350" fill="#fbfbfb"/>
<defs><clipPath id="pr1"><rect x="315" y="150" width="270" height="230"/></clipPath></defs>
<g clip-path="url(#pr1)">
<rect x="315" y="150" width="270" height="30" fill="#f7e6da"/>
<line x1="315" y1="157" x2="326" y2="157" stroke="#e3c3ad" stroke-width="3" stroke-linecap="round"/>
<line x1="333" y1="157" x2="344" y2="157" stroke="#e3c3ad" stroke-width="3" stroke-linecap="round"/>
<line x1="351" y1="157" x2="362" y2="157" stroke="#e3c3ad" stroke-width="3" stroke-linecap="round"/>
<line x1="369" y1="157" x2="380" y2="157" stroke="#e3c3ad" stroke-width="3" stroke-linecap="round"/>
<line x1="387" y1="157" x2="398" y2="157" stroke="#e3c3ad" stroke-width="3" stroke-linecap="round"/>
<line x1="405" y1="157" x2="416" y2="157" stroke="#e3c3ad" stroke-width="3" stroke-linecap="round"/>
<line x1="423" y1="157" x2="434" y2="157" stroke="#e3c3ad" stroke-width="3" stroke-linecap="round"/>
<line x1="441" y1="157" x2="452" y2="157" stroke="#e3c3ad" stroke-width="3" stroke-linecap="round"/>
<line x1="459" y1="157" x2="470" y2="157" stroke="#e3c3ad" stroke-width="3" stroke-linecap="round"/>
<line x1="477" y1="157" x2="488" y2="157" stroke="#e3c3ad" stroke-width="3" stroke-linecap="round"/>
<line x1="495" y1="157" x2="506" y2="157" stroke="#e3c3ad" stroke-width="3" stroke-linecap="round"/>
<line x1="513" y1="157" x2="524" y2="157" stroke="#e3c3ad" stroke-width="3" stroke-linecap="round"/>
<line x1="531" y1="157" x2="542" y2="157" stroke="#e3c3ad" stroke-width="3" stroke-linecap="round"/>
<line x1="549" y1="157" x2="560" y2="157" stroke="#e3c3ad" stroke-width="3" stroke-linecap="round"/>
<line x1="567" y1="157" x2="578" y2="157" stroke="#e3c3ad" stroke-width="3" stroke-linecap="round"/>
<rect x="315" y="180" width="270" height="150" fill="#f5d6d4"/>
<path d="M315 202 Q340 194 365 202 Q390 210 415 202 Q440 194 465 202 Q490 210 515 202 Q540 194 565 202 Q590 210 615 202" fill="none" stroke="#e0a5a1" stroke-width="3" stroke-linecap="round"/>
<path d="M315 228 Q340 220 365 228 Q390 236 415 228 Q440 220 465 228 Q490 236 515 228 Q540 220 565 228 Q590 236 615 228" fill="none" stroke="#e0a5a1" stroke-width="3" stroke-linecap="round"/>
<path d="M315 254 Q340 246 365 254 Q390 262 415 254 Q440 246 465 254 Q490 262 515 254 Q540 246 565 254 Q590 262 615 254" fill="none" stroke="#e0a5a1" stroke-width="3" stroke-linecap="round"/>
<path d="M315 280 Q340 272 365 280 Q390 288 415 280 Q440 272 465 280 Q490 288 515 280 Q540 272 565 280 Q590 288 615 280" fill="none" stroke="#e0a5a1" stroke-width="3" stroke-linecap="round"/>
<path d="M315 306 Q340 298 365 306 Q390 314 415 306 Q440 298 465 306 Q490 314 515 306 Q540 298 565 306 Q590 314 615 306" fill="none" stroke="#e0a5a1" stroke-width="3" stroke-linecap="round"/>
<rect x="315" y="330" width="270" height="50" fill="#fcf2d2"/>
<circle cx="333" cy="352" r="16" fill="#f6e3a6" stroke="#e5cd7d" stroke-width="1.5"/>
<circle cx="352" cy="388" r="16" fill="#f6e3a6" stroke="#e5cd7d" stroke-width="1.5"/>
<circle cx="371" cy="352" r="16" fill="#f6e3a6" stroke="#e5cd7d" stroke-width="1.5"/>
<circle cx="390" cy="388" r="16" fill="#f6e3a6" stroke="#e5cd7d" stroke-width="1.5"/>
<circle cx="409" cy="352" r="16" fill="#f6e3a6" stroke="#e5cd7d" stroke-width="1.5"/>
<circle cx="428" cy="388" r="16" fill="#f6e3a6" stroke="#e5cd7d" stroke-width="1.5"/>
<circle cx="447" cy="352" r="16" fill="#f6e3a6" stroke="#e5cd7d" stroke-width="1.5"/>
<circle cx="466" cy="388" r="16" fill="#f6e3a6" stroke="#e5cd7d" stroke-width="1.5"/>
<circle cx="485" cy="352" r="16" fill="#f6e3a6" stroke="#e5cd7d" stroke-width="1.5"/>
<circle cx="504" cy="388" r="16" fill="#f6e3a6" stroke="#e5cd7d" stroke-width="1.5"/>
<circle cx="523" cy="352" r="16" fill="#f6e3a6" stroke="#e5cd7d" stroke-width="1.5"/>
<circle cx="542" cy="388" r="16" fill="#f6e3a6" stroke="#e5cd7d" stroke-width="1.5"/>
<circle cx="561" cy="352" r="16" fill="#f6e3a6" stroke="#e5cd7d" stroke-width="1.5"/>
<circle cx="580" cy="388" r="16" fill="#f6e3a6" stroke="#e5cd7d" stroke-width="1.5"/>
<circle cx="599" cy="352" r="16" fill="#f6e3a6" stroke="#e5cd7d" stroke-width="1.5"/>
<circle cx="618" cy="388" r="16" fill="#f6e3a6" stroke="#e5cd7d" stroke-width="1.5"/>
</g>
<line x1="315" y1="180" x2="585" y2="180" stroke="#d9b6a0" stroke-width="1.5" stroke-dasharray="4 4"/>
<path d="M353.0 150 Q353.0 198 368.0 202 Q383.0 198 383.0 150 Z" fill="#fbfbfb" stroke="#c99a80" stroke-width="2"/>
<path d="M517.0 150 Q517.0 198 532.0 202 Q547.0 198 547.0 150 Z" fill="#fbfbfb" stroke="#c99a80" stroke-width="2"/>
<rect x="410.0" y="46" width="80" height="34" rx="6" fill="#dcdcdc" stroke="#9a9a9a"/>
<path d="M424.0 80 L355.0 150 L545.0 150 L476.0 80 Z" fill="url(#beam)"/>
<ellipse cx="450.0" cy="220" rx="125" ry="58" fill="url(#heat)" opacity="0.8"/>
<path d="M502.0 68 L502.0 144" stroke="#1a1a1a" stroke-width="1.5" stroke-dasharray="3 3"/>
<text x="508.0" y="120" text-anchor="start" font-family="'Noto Sans KR','Apple SD Gothic Neo','Malgun Gothic',sans-serif" font-size="12" font-weight="700" fill="#8a6a5a">닿지 않음</text>
<text x="404.0" y="68" text-anchor="end" font-family="'Noto Sans KR','Apple SD Gothic Neo','Malgun Gothic',sans-serif" font-size="13" font-weight="700" fill="#7a5ab8">1064nm</text>
<rect x="315" y="30" width="270" height="350" fill="none" stroke="#cfcfcf" stroke-width="1.5"/>
<text x="450.0" y="420" text-anchor="middle" font-family="'Noto Sans KR','Apple SD Gothic Neo','Malgun Gothic',sans-serif" font-size="19" font-weight="700" fill="#1a1a1a">제네시스 토닝</text>
<text x="450.0" y="446" text-anchor="middle" font-family="'Noto Sans KR','Apple SD Gothic Neo','Malgun Gothic',sans-serif" font-size="14" font-weight="400" fill="#555555">닿지 않고 진피를 고르게 데움</text>
<rect x="615" y="30" width="270" height="350" fill="#fbfbfb"/>
<defs><clipPath id="pr2"><rect x="615" y="150" width="270" height="230"/></clipPath></defs>
<g clip-path="url(#pr2)">
<rect x="615" y="150" width="270" height="30" fill="#f7e6da"/>
<line x1="615" y1="157" x2="626" y2="157" stroke="#e3c3ad" stroke-width="3" stroke-linecap="round"/>
<line x1="633" y1="157" x2="644" y2="157" stroke="#e3c3ad" stroke-width="3" stroke-linecap="round"/>
<line x1="651" y1="157" x2="662" y2="157" stroke="#e3c3ad" stroke-width="3" stroke-linecap="round"/>
<line x1="669" y1="157" x2="680" y2="157" stroke="#e3c3ad" stroke-width="3" stroke-linecap="round"/>
<line x1="687" y1="157" x2="698" y2="157" stroke="#e3c3ad" stroke-width="3" stroke-linecap="round"/>
<line x1="705" y1="157" x2="716" y2="157" stroke="#e3c3ad" stroke-width="3" stroke-linecap="round"/>
<line x1="723" y1="157" x2="734" y2="157" stroke="#e3c3ad" stroke-width="3" stroke-linecap="round"/>
<line x1="741" y1="157" x2="752" y2="157" stroke="#e3c3ad" stroke-width="3" stroke-linecap="round"/>
<line x1="759" y1="157" x2="770" y2="157" stroke="#e3c3ad" stroke-width="3" stroke-linecap="round"/>
<line x1="777" y1="157" x2="788" y2="157" stroke="#e3c3ad" stroke-width="3" stroke-linecap="round"/>
<line x1="795" y1="157" x2="806" y2="157" stroke="#e3c3ad" stroke-width="3" stroke-linecap="round"/>
<line x1="813" y1="157" x2="824" y2="157" stroke="#e3c3ad" stroke-width="3" stroke-linecap="round"/>
<line x1="831" y1="157" x2="842" y2="157" stroke="#e3c3ad" stroke-width="3" stroke-linecap="round"/>
<line x1="849" y1="157" x2="860" y2="157" stroke="#e3c3ad" stroke-width="3" stroke-linecap="round"/>
<line x1="867" y1="157" x2="878" y2="157" stroke="#e3c3ad" stroke-width="3" stroke-linecap="round"/>
<rect x="615" y="180" width="270" height="150" fill="#f5d6d4"/>
<path d="M615 202 Q640 194 665 202 Q690 210 715 202 Q740 194 765 202 Q790 210 815 202 Q840 194 865 202 Q890 210 915 202" fill="none" stroke="#e0a5a1" stroke-width="3" stroke-linecap="round"/>
<path d="M615 228 Q640 220 665 228 Q690 236 715 228 Q740 220 765 228 Q790 236 815 228 Q840 220 865 228 Q890 236 915 228" fill="none" stroke="#e0a5a1" stroke-width="3" stroke-linecap="round"/>
<path d="M615 254 Q640 246 665 254 Q690 262 715 254 Q740 246 765 254 Q790 262 815 254 Q840 246 865 254 Q890 262 915 254" fill="none" stroke="#e0a5a1" stroke-width="3" stroke-linecap="round"/>
<path d="M615 280 Q640 272 665 280 Q690 288 715 280 Q740 272 765 280 Q790 288 815 280 Q840 272 865 280 Q890 288 915 280" fill="none" stroke="#e0a5a1" stroke-width="3" stroke-linecap="round"/>
<path d="M615 306 Q640 298 665 306 Q690 314 715 306 Q740 298 765 306 Q790 314 815 306 Q840 298 865 306 Q890 314 915 306" fill="none" stroke="#e0a5a1" stroke-width="3" stroke-linecap="round"/>
<rect x="615" y="330" width="270" height="50" fill="#fcf2d2"/>
<circle cx="633" cy="352" r="16" fill="#f6e3a6" stroke="#e5cd7d" stroke-width="1.5"/>
<circle cx="652" cy="388" r="16" fill="#f6e3a6" stroke="#e5cd7d" stroke-width="1.5"/>
<circle cx="671" cy="352" r="16" fill="#f6e3a6" stroke="#e5cd7d" stroke-width="1.5"/>
<circle cx="690" cy="388" r="16" fill="#f6e3a6" stroke="#e5cd7d" stroke-width="1.5"/>
<circle cx="709" cy="352" r="16" fill="#f6e3a6" stroke="#e5cd7d" stroke-width="1.5"/>
<circle cx="728" cy="388" r="16" fill="#f6e3a6" stroke="#e5cd7d" stroke-width="1.5"/>
<circle cx="747" cy="352" r="16" fill="#f6e3a6" stroke="#e5cd7d" stroke-width="1.5"/>
<circle cx="766" cy="388" r="16" fill="#f6e3a6" stroke="#e5cd7d" stroke-width="1.5"/>
<circle cx="785" cy="352" r="16" fill="#f6e3a6" stroke="#e5cd7d" stroke-width="1.5"/>
<circle cx="804" cy="388" r="16" fill="#f6e3a6" stroke="#e5cd7d" stroke-width="1.5"/>
<circle cx="823" cy="352" r="16" fill="#f6e3a6" stroke="#e5cd7d" stroke-width="1.5"/>
<circle cx="842" cy="388" r="16" fill="#f6e3a6" stroke="#e5cd7d" stroke-width="1.5"/>
<circle cx="861" cy="352" r="16" fill="#f6e3a6" stroke="#e5cd7d" stroke-width="1.5"/>
<circle cx="880" cy="388" r="16" fill="#f6e3a6" stroke="#e5cd7d" stroke-width="1.5"/>
<circle cx="899" cy="352" r="16" fill="#f6e3a6" stroke="#e5cd7d" stroke-width="1.5"/>
<circle cx="918" cy="388" r="16" fill="#f6e3a6" stroke="#e5cd7d" stroke-width="1.5"/>
</g>
<line x1="615" y1="180" x2="885" y2="180" stroke="#d9b6a0" stroke-width="1.5" stroke-dasharray="4 4"/>
<path d="M653.0 150 Q653.0 198 668.0 202 Q683.0 198 683.0 150 Z" fill="#fbfbfb" stroke="#c99a80" stroke-width="2"/>
<path d="M817.0 150 Q817.0 198 832.0 202 Q847.0 198 847.0 150 Z" fill="#fbfbfb" stroke="#c99a80" stroke-width="2"/>
<circle cx="689.9" cy="296.0" r="3.4" fill="#4f8fb8" opacity="0.85"/>
<circle cx="667.8" cy="269.0" r="3.4" fill="#4f8fb8" opacity="0.85"/>
<circle cx="658.7" cy="221.0" r="3.4" fill="#4f8fb8" opacity="0.85"/>
<circle cx="859.8" cy="217.0" r="3.4" fill="#4f8fb8" opacity="0.85"/>
<circle cx="781.2" cy="243.2" r="3.4" fill="#4f8fb8" opacity="0.85"/>
<circle cx="739.7" cy="247.0" r="3.4" fill="#4f8fb8" opacity="0.85"/>
<circle cx="682.3" cy="282.2" r="3.4" fill="#4f8fb8" opacity="0.85"/>
<circle cx="659.7" cy="219.6" r="3.4" fill="#4f8fb8" opacity="0.85"/>
<circle cx="644.4" cy="223.0" r="3.4" fill="#4f8fb8" opacity="0.85"/>
<circle cx="729.7" cy="289.7" r="3.4" fill="#4f8fb8" opacity="0.85"/>
<circle cx="723.4" cy="206.9" r="3.4" fill="#4f8fb8" opacity="0.85"/>
<circle cx="696.8" cy="299.1" r="3.4" fill="#4f8fb8" opacity="0.85"/>
<circle cx="653.9" cy="260.1" r="3.4" fill="#4f8fb8" opacity="0.85"/>
<circle cx="723.0" cy="264.4" r="3.4" fill="#4f8fb8" opacity="0.85"/>
<circle cx="714.5" cy="267.6" r="3.4" fill="#4f8fb8" opacity="0.85"/>
<circle cx="749.5" cy="263.2" r="3.4" fill="#4f8fb8" opacity="0.85"/>
<circle cx="838.3" cy="256.1" r="3.4" fill="#4f8fb8" opacity="0.85"/>
<circle cx="671.3" cy="201.8" r="3.4" fill="#4f8fb8" opacity="0.85"/>
<circle cx="848.1" cy="246.3" r="3.4" fill="#4f8fb8" opacity="0.85"/>
<circle cx="682.6" cy="294.3" r="3.4" fill="#4f8fb8" opacity="0.85"/>
<circle cx="767.4" cy="271.5" r="3.4" fill="#4f8fb8" opacity="0.85"/>
<circle cx="833.8" cy="225.0" r="3.4" fill="#4f8fb8" opacity="0.85"/>
<circle cx="718.5" cy="287.2" r="3.4" fill="#4f8fb8" opacity="0.85"/>
<circle cx="669.7" cy="275.3" r="3.4" fill="#4f8fb8" opacity="0.85"/>
<circle cx="661.5" cy="267.5" r="3.4" fill="#4f8fb8" opacity="0.85"/>
<circle cx="794.5" cy="294.7" r="3.4" fill="#4f8fb8" opacity="0.85"/>
<circle cx="825.6" cy="247.9" r="3.4" fill="#4f8fb8" opacity="0.85"/>
<circle cx="683.5" cy="210.8" r="3.4" fill="#4f8fb8" opacity="0.85"/>
<circle cx="756.3" cy="248.5" r="3.4" fill="#4f8fb8" opacity="0.85"/>
<circle cx="655.7" cy="289.8" r="3.4" fill="#4f8fb8" opacity="0.85"/>
<circle cx="751.6" cy="268.6" r="3.4" fill="#4f8fb8" opacity="0.85"/>
<circle cx="688.4" cy="220.6" r="3.4" fill="#4f8fb8" opacity="0.85"/>
<circle cx="642.6" cy="231.0" r="3.4" fill="#4f8fb8" opacity="0.85"/>
<circle cx="698.7" cy="239.5" r="3.4" fill="#4f8fb8" opacity="0.85"/>
<circle cx="722.9" cy="282.6" r="3.4" fill="#4f8fb8" opacity="0.85"/>
<circle cx="836.1" cy="213.4" r="3.4" fill="#4f8fb8" opacity="0.85"/>
<path d="M704.0 100 L704.0 170" stroke="#4f8fb8" stroke-width="2.5" marker-end="url(#arr)"/>
<path d="M750.0 100 L750.0 170" stroke="#4f8fb8" stroke-width="2.5" marker-end="url(#arr)"/>
<path d="M796.0 100 L796.0 170" stroke="#4f8fb8" stroke-width="2.5" marker-end="url(#arr)"/>
<rect x="615" y="30" width="270" height="350" fill="none" stroke="#cfcfcf" stroke-width="1.5"/>
<text x="750.0" y="420" text-anchor="middle" font-family="'Noto Sans KR','Apple SD Gothic Neo','Malgun Gothic',sans-serif" font-size="19" font-weight="700" fill="#1a1a1a">스킨부스터</text>
<text x="750.0" y="446" text-anchor="middle" font-family="'Noto Sans KR','Apple SD Gothic Neo','Malgun Gothic',sans-serif" font-size="14" font-weight="400" fill="#555555">부족해진 진피를 안쪽에서 채움</text>
<rect x="915" y="30" width="270" height="350" fill="#fbfbfb"/>
<defs><clipPath id="pr3"><rect x="915" y="150" width="270" height="230"/></clipPath></defs>
<g clip-path="url(#pr3)">
<rect x="915" y="150" width="270" height="30" fill="#f7e6da"/>
<line x1="915" y1="157" x2="926" y2="157" stroke="#e3c3ad" stroke-width="3" stroke-linecap="round"/>
<line x1="933" y1="157" x2="944" y2="157" stroke="#e3c3ad" stroke-width="3" stroke-linecap="round"/>
<line x1="951" y1="157" x2="962" y2="157" stroke="#e3c3ad" stroke-width="3" stroke-linecap="round"/>
<line x1="969" y1="157" x2="980" y2="157" stroke="#e3c3ad" stroke-width="3" stroke-linecap="round"/>
<line x1="987" y1="157" x2="998" y2="157" stroke="#e3c3ad" stroke-width="3" stroke-linecap="round"/>
<line x1="1005" y1="157" x2="1016" y2="157" stroke="#e3c3ad" stroke-width="3" stroke-linecap="round"/>
<line x1="1023" y1="157" x2="1034" y2="157" stroke="#e3c3ad" stroke-width="3" stroke-linecap="round"/>
<line x1="1041" y1="157" x2="1052" y2="157" stroke="#e3c3ad" stroke-width="3" stroke-linecap="round"/>
<line x1="1059" y1="157" x2="1070" y2="157" stroke="#e3c3ad" stroke-width="3" stroke-linecap="round"/>
<line x1="1077" y1="157" x2="1088" y2="157" stroke="#e3c3ad" stroke-width="3" stroke-linecap="round"/>
<line x1="1095" y1="157" x2="1106" y2="157" stroke="#e3c3ad" stroke-width="3" stroke-linecap="round"/>
<line x1="1113" y1="157" x2="1124" y2="157" stroke="#e3c3ad" stroke-width="3" stroke-linecap="round"/>
<line x1="1131" y1="157" x2="1142" y2="157" stroke="#e3c3ad" stroke-width="3" stroke-linecap="round"/>
<line x1="1149" y1="157" x2="1160" y2="157" stroke="#e3c3ad" stroke-width="3" stroke-linecap="round"/>
<line x1="1167" y1="157" x2="1178" y2="157" stroke="#e3c3ad" stroke-width="3" stroke-linecap="round"/>
<rect x="915" y="180" width="270" height="150" fill="#f5d6d4"/>
<path d="M915 202 Q940 194 965 202 Q990 210 1015 202 Q1040 194 1065 202 Q1090 210 1115 202 Q1140 194 1165 202 Q1190 210 1215 202" fill="none" stroke="#e0a5a1" stroke-width="3" stroke-linecap="round"/>
<path d="M915 228 Q940 220 965 228 Q990 236 1015 228 Q1040 220 1065 228 Q1090 236 1115 228 Q1140 220 1165 228 Q1190 236 1215 228" fill="none" stroke="#e0a5a1" stroke-width="3" stroke-linecap="round"/>
<path d="M915 254 Q940 246 965 254 Q990 262 1015 254 Q1040 246 1065 254 Q1090 262 1115 254 Q1140 246 1165 254 Q1190 262 1215 254" fill="none" stroke="#e0a5a1" stroke-width="3" stroke-linecap="round"/>
<path d="M915 280 Q940 272 965 280 Q990 288 1015 280 Q1040 272 1065 280 Q1090 288 1115 280 Q1140 272 1165 280 Q1190 288 1215 280" fill="none" stroke="#e0a5a1" stroke-width="3" stroke-linecap="round"/>
<path d="M915 306 Q940 298 965 306 Q990 314 1015 306 Q1040 298 1065 306 Q1090 314 1115 306 Q1140 298 1165 306 Q1190 314 1215 306" fill="none" stroke="#e0a5a1" stroke-width="3" stroke-linecap="round"/>
<rect x="915" y="330" width="270" height="50" fill="#fcf2d2"/>
<circle cx="933" cy="352" r="16" fill="#f6e3a6" stroke="#e5cd7d" stroke-width="1.5"/>
<circle cx="952" cy="388" r="16" fill="#f6e3a6" stroke="#e5cd7d" stroke-width="1.5"/>
<circle cx="971" cy="352" r="16" fill="#f6e3a6" stroke="#e5cd7d" stroke-width="1.5"/>
<circle cx="990" cy="388" r="16" fill="#f6e3a6" stroke="#e5cd7d" stroke-width="1.5"/>
<circle cx="1009" cy="352" r="16" fill="#f6e3a6" stroke="#e5cd7d" stroke-width="1.5"/>
<circle cx="1028" cy="388" r="16" fill="#f6e3a6" stroke="#e5cd7d" stroke-width="1.5"/>
<circle cx="1047" cy="352" r="16" fill="#f6e3a6" stroke="#e5cd7d" stroke-width="1.5"/>
<circle cx="1066" cy="388" r="16" fill="#f6e3a6" stroke="#e5cd7d" stroke-width="1.5"/>
<circle cx="1085" cy="352" r="16" fill="#f6e3a6" stroke="#e5cd7d" stroke-width="1.5"/>
<circle cx="1104" cy="388" r="16" fill="#f6e3a6" stroke="#e5cd7d" stroke-width="1.5"/>
<circle cx="1123" cy="352" r="16" fill="#f6e3a6" stroke="#e5cd7d" stroke-width="1.5"/>
<circle cx="1142" cy="388" r="16" fill="#f6e3a6" stroke="#e5cd7d" stroke-width="1.5"/>
<circle cx="1161" cy="352" r="16" fill="#f6e3a6" stroke="#e5cd7d" stroke-width="1.5"/>
<circle cx="1180" cy="388" r="16" fill="#f6e3a6" stroke="#e5cd7d" stroke-width="1.5"/>
<circle cx="1199" cy="352" r="16" fill="#f6e3a6" stroke="#e5cd7d" stroke-width="1.5"/>
<circle cx="1218" cy="388" r="16" fill="#f6e3a6" stroke="#e5cd7d" stroke-width="1.5"/>
</g>
<line x1="915" y1="180" x2="1185" y2="180" stroke="#d9b6a0" stroke-width="1.5" stroke-dasharray="4 4"/>
<path d="M953.0 150 Q953.0 198 968.0 202 Q983.0 198 983.0 150 Z" fill="#fbfbfb" stroke="#c99a80" stroke-width="2"/>
<path d="M957.0 172 Q968.0 166 979.0 172 Q978.0 194 968.0 196 Q958.0 194 957.0 172 Z" fill="#f7e08a" stroke="#d9b45a" stroke-width="1" opacity="0.55"/>
<path d="M1117.0 150 Q1117.0 198 1132.0 202 Q1147.0 198 1147.0 150 Z" fill="#fbfbfb" stroke="#c99a80" stroke-width="2"/>
<path d="M1121.0 172 Q1132.0 166 1143.0 172 Q1142.0 194 1132.0 196 Q1122.0 194 1121.0 172 Z" fill="#f7e08a" stroke="#d9b45a" stroke-width="1" opacity="0.55"/>
<rect x="915" y="140" width="270" height="10" fill="#9fd3c7" opacity="0.55"/>
<path d="M923.7965654295084 138 q9 -10 18 -2" fill="none" stroke="#c9b8a8" stroke-width="3" stroke-linecap="round"/>
<path d="M981.3312837689987 138 q9 -10 18 -2" fill="none" stroke="#c9b8a8" stroke-width="3" stroke-linecap="round"/>
<path d="M1005.140802823403 138 q9 -10 18 -2" fill="none" stroke="#c9b8a8" stroke-width="3" stroke-linecap="round"/>
<path d="M1032.0868835447206 138 q9 -10 18 -2" fill="none" stroke="#c9b8a8" stroke-width="3" stroke-linecap="round"/>
<path d="M1062.998035936507 138 q9 -10 18 -2" fill="none" stroke="#c9b8a8" stroke-width="3" stroke-linecap="round"/>
<path d="M1090.1923851158267 138 q9 -10 18 -2" fill="none" stroke="#c9b8a8" stroke-width="3" stroke-linecap="round"/>
<path d="M1149.5247412243095 138 q9 -10 18 -2" fill="none" stroke="#c9b8a8" stroke-width="3" stroke-linecap="round"/>
<text x="1050.0" y="104" text-anchor="middle" font-family="'Noto Sans KR','Apple SD Gothic Neo','Malgun Gothic',sans-serif" font-size="12" font-weight="700" fill="#8a6a5a">필링제가 각질과 피지를 녹임</text>
<rect x="915" y="30" width="270" height="350" fill="none" stroke="#cfcfcf" stroke-width="1.5"/>
<text x="1050.0" y="420" text-anchor="middle" font-family="'Noto Sans KR','Apple SD Gothic Neo','Malgun Gothic',sans-serif" font-size="19" font-weight="700" fill="#1a1a1a">필링</text>
<text x="1050.0" y="446" text-anchor="middle" font-family="'Noto Sans KR','Apple SD Gothic Neo','Malgun Gothic',sans-serif" font-size="14" font-weight="400" fill="#555555">모공 입구의 각질과 피지를 정리</text>
</svg>